<?xml version="1.0" encoding="UTF-8" standalone="no"?>
<!-- Created with Inkscape (http://www.inkscape.org/) -->

<svg
   xmlns:dc="http://purl.org/dc/elements/1.1/"
   xmlns:cc="http://creativecommons.org/ns#"
   xmlns:rdf="http://www.w3.org/1999/02/22-rdf-syntax-ns#"
   xmlns:svg="http://www.w3.org/2000/svg"
   xmlns="http://www.w3.org/2000/svg"
   xmlns:sodipodi="http://sodipodi.sourceforge.net/DTD/sodipodi-0.dtd"
   xmlns:inkscape="http://www.inkscape.org/namespaces/inkscape"
   version="1.1"
   id="svg10"
   xml:space="preserve"
   width="1121.3333"
   height="793.33331"
   viewBox="0 0 1121.3333 793.33331"
   sodipodi:docname="ratio_violin.svg"
   inkscape:version="0.92.3 (2405546, 2018-03-11)"><metadata
     id="metadata16"><rdf:RDF><cc:Work
         rdf:about=""><dc:format>image/svg+xml</dc:format><dc:type
           rdf:resource="http://purl.org/dc/dcmitype/StillImage" /><dc:title></dc:title></cc:Work></rdf:RDF></metadata><defs
     id="defs14"><clipPath
       clipPathUnits="userSpaceOnUse"
       id="clipPath50"><path
         d="M 71.66,54.26 H 831.72 V 585.48 H 71.66 Z"
         id="path48"
         inkscape:connector-curvature="0" /></clipPath></defs><sodipodi:namedview
     pagecolor="#ffffff"
     bordercolor="#666666"
     borderopacity="1"
     objecttolerance="10"
     gridtolerance="10"
     guidetolerance="10"
     inkscape:pageopacity="0"
     inkscape:pageshadow="2"
     inkscape:window-width="1858"
     inkscape:window-height="1057"
     id="namedview12"
     showgrid="false"
     inkscape:zoom="0.59"
     inkscape:cx="11.57679"
     inkscape:cy="396.66666"
     inkscape:window-x="54"
     inkscape:window-y="-8"
     inkscape:window-maximized="1"
     inkscape:current-layer="g18" /><g
     id="g18"
     inkscape:groupmode="layer"
     inkscape:label="ratio_violin"
     transform="matrix(1.3333333,0,0,-1.3333333,0,793.33333)"><g
       id="g20" /><g
       id="g22" /><g
       id="g24" /><g
       id="g26" /><g
       id="g28" /><g
       id="g30" /><g
       id="g32" /><g
       id="g34" /><g
       id="g36" /><g
       id="g38"><path
         d="M 0,0 H 841.68 V 595.44 H 0 Z"
         style="fill:#ffffff;fill-opacity:1;fill-rule:nonzero;stroke:#ffffff;stroke-width:1.94000006;stroke-linecap:round;stroke-linejoin:round;stroke-miterlimit:10;stroke-dasharray:none;stroke-opacity:1"
         id="path40"
         inkscape:connector-curvature="0" /></g><g
       id="g42" /><g
       id="g44"><g
         id="g46"
         clip-path="url(#clipPath50)"><path
           d="M 71.66,54.26 H 831.72 V 585.48 H 71.66 Z"
           style="fill:#ffffff;fill-opacity:1;fill-rule:nonzero;stroke:none"
           id="path52"
           inkscape:connector-curvature="0" /><path
           d="M 71.66,138.77 H 831.72"
           style="fill:none;stroke:#ebebeb;stroke-width:0.97000003;stroke-linecap:butt;stroke-linejoin:round;stroke-miterlimit:10;stroke-dasharray:none;stroke-opacity:1"
           id="path54"
           inkscape:connector-curvature="0" /><path
           d="M 71.66,259.5 H 831.72"
           style="fill:none;stroke:#ebebeb;stroke-width:0.97000003;stroke-linecap:butt;stroke-linejoin:round;stroke-miterlimit:10;stroke-dasharray:none;stroke-opacity:1"
           id="path56"
           inkscape:connector-curvature="0" /><path
           d="M 71.66,380.23 H 831.72"
           style="fill:none;stroke:#ebebeb;stroke-width:0.97000003;stroke-linecap:butt;stroke-linejoin:round;stroke-miterlimit:10;stroke-dasharray:none;stroke-opacity:1"
           id="path58"
           inkscape:connector-curvature="0" /><path
           d="M 71.66,500.97 H 831.72"
           style="fill:none;stroke:#ebebeb;stroke-width:0.97000003;stroke-linecap:butt;stroke-linejoin:round;stroke-miterlimit:10;stroke-dasharray:none;stroke-opacity:1"
           id="path60"
           inkscape:connector-curvature="0" /><path
           d="M 71.66,78.4 H 831.72"
           style="fill:none;stroke:#ebebeb;stroke-width:1.94000006;stroke-linecap:butt;stroke-linejoin:round;stroke-miterlimit:10;stroke-dasharray:none;stroke-opacity:1"
           id="path62"
           inkscape:connector-curvature="0" /><path
           d="M 71.66,199.14 H 831.72"
           style="fill:none;stroke:#ebebeb;stroke-width:1.94000006;stroke-linecap:butt;stroke-linejoin:round;stroke-miterlimit:10;stroke-dasharray:none;stroke-opacity:1"
           id="path64"
           inkscape:connector-curvature="0" /><path
           d="M 71.66,319.87 H 831.72"
           style="fill:none;stroke:#ebebeb;stroke-width:1.94000006;stroke-linecap:butt;stroke-linejoin:round;stroke-miterlimit:10;stroke-dasharray:none;stroke-opacity:1"
           id="path66"
           inkscape:connector-curvature="0" /><path
           d="M 71.66,440.6 H 831.72"
           style="fill:none;stroke:#ebebeb;stroke-width:1.94000006;stroke-linecap:butt;stroke-linejoin:round;stroke-miterlimit:10;stroke-dasharray:none;stroke-opacity:1"
           id="path68"
           inkscape:connector-curvature="0" /><path
           d="M 71.66,561.33 H 831.72"
           style="fill:none;stroke:#ebebeb;stroke-width:1.94000006;stroke-linecap:butt;stroke-linejoin:round;stroke-miterlimit:10;stroke-dasharray:none;stroke-opacity:1"
           id="path70"
           inkscape:connector-curvature="0" /><path
           d="M 214.17,54.26 V 585.48"
           style="fill:none;stroke:#ebebeb;stroke-width:1.94000006;stroke-linecap:butt;stroke-linejoin:round;stroke-miterlimit:10;stroke-dasharray:none;stroke-opacity:1"
           id="path72"
           inkscape:connector-curvature="0" /><path
           d="M 451.69,54.26 V 585.48"
           style="fill:none;stroke:#ebebeb;stroke-width:1.94000006;stroke-linecap:butt;stroke-linejoin:round;stroke-miterlimit:10;stroke-dasharray:none;stroke-opacity:1"
           id="path74"
           inkscape:connector-curvature="0" /><path
           d="M 689.21,54.26 V 585.48"
           style="fill:none;stroke:#ebebeb;stroke-width:1.94000006;stroke-linecap:butt;stroke-linejoin:round;stroke-miterlimit:10;stroke-dasharray:none;stroke-opacity:1"
           id="path76"
           inkscape:connector-curvature="0" /><path
           d="m 209.21,78.4 -0.14,0.91 -0.14,0.91 -0.15,0.91 -0.14,0.91 -0.15,0.91 -0.14,0.91 -0.15,0.9 -0.15,0.91 -0.15,0.91 -0.14,0.91 -0.15,0.91 -0.15,0.91 -0.15,0.91 -0.15,0.9 -0.15,0.91 -0.14,0.91 -0.15,0.91 -0.15,0.91 -0.15,0.91 -0.14,0.91 -0.15,0.9 -0.14,0.91 -0.15,0.91 -0.14,0.91 -0.14,0.91 -0.15,0.91 -0.14,0.91 -0.14,0.9 -0.14,0.91 -0.13,0.91 -0.14,0.91 -0.14,0.91 -0.13,0.91 -0.13,0.91 -0.13,0.9 -0.13,0.91 -0.13,0.91 -0.13,0.91 -0.13,0.91 -0.12,0.91 -0.12,0.91 -0.12,0.9 -0.12,0.91 -0.12,0.91 -0.12,0.91 -0.11,0.91 -0.11,0.91 -0.11,0.91 -0.11,0.9 -0.11,0.91 -0.1,0.91 -0.1,0.91 -0.1,0.91 -0.1,0.91 -0.09,0.91 -0.1,0.9 -0.08,0.91 -0.09,0.91 -0.09,0.91 -0.08,0.91 -0.08,0.91 -0.08,0.91 -0.07,0.9 -0.07,0.91 -0.07,0.91 -0.07,0.91 -0.06,0.91 -0.06,0.91 -0.05,0.91 -0.05,0.9 -0.05,0.91 -0.05,0.91 -0.04,0.91 -0.04,0.91 -0.04,0.91 -0.03,0.91 -0.03,0.9 -0.02,0.91 -0.02,0.91 -0.02,0.91 -0.01,0.91 -0.01,0.91 v 0.91 0.9 0.91 l 0.01,0.91 0.01,0.91 0.01,0.91 0.02,0.91 0.03,0.91 0.03,0.9 0.03,0.91 0.03,0.91 0.04,0.91 0.05,0.91 0.05,0.91 0.05,0.91 0.06,0.9 0.06,0.91 0.06,0.91 0.07,0.91 0.07,0.91 0.08,0.91 0.08,0.91 0.09,0.9 0.08,0.91 0.09,0.91 0.1,0.91 0.1,0.91 0.1,0.91 0.1,0.91 0.11,0.9 0.11,0.91 0.12,0.91 0.11,0.91 0.12,0.91 0.12,0.91 0.13,0.91 0.12,0.9 0.13,0.91 0.13,0.91 0.14,0.91 0.13,0.91 0.13,0.91 0.14,0.91 0.14,0.9 0.14,0.91 0.14,0.91 0.14,0.91 0.14,0.91 0.14,0.91 0.14,0.91 0.14,0.9 0.14,0.91 0.15,0.91 0.14,0.91 0.14,0.91 0.14,0.91 0.14,0.91 0.13,0.9 0.14,0.91 0.13,0.91 0.14,0.91 0.13,0.91 0.13,0.91 0.13,0.91 0.13,0.9 0.12,0.91 0.12,0.91 0.12,0.91 0.12,0.91 0.12,0.91 0.11,0.91 0.11,0.9 0.11,0.91 0.1,0.91 0.11,0.91 0.1,0.91 0.09,0.91 0.1,0.91 0.09,0.9 0.08,0.91 0.09,0.91 0.08,0.91 0.08,0.91 0.08,0.91 0.07,0.91 0.07,0.9 0.07,0.91 0.06,0.91 0.06,0.91 0.06,0.91 0.06,0.91 0.05,0.91 0.05,0.9 0.05,0.91 0.05,0.91 0.04,0.91 0.04,0.91 0.04,0.91 0.04,0.91 0.03,0.9 0.03,0.91 0.03,0.91 0.03,0.91 0.03,0.91 0.02,0.91 0.02,0.9 0.02,0.91 0.02,0.91 0.02,0.91 0.01,0.91 0.02,0.91 0.01,0.91 0.01,0.9 0.02,0.91 0.01,0.91 v 0.91 l 0.01,0.91 0.01,0.91 0.01,0.91 v 0.9 l 0.01,0.91 v 0.91 l 0.01,0.91 v 0.91 0.91 l 0.01,0.91 v 0.9 0.91 l 0.01,0.91 v 0.91 0.91 l 0.01,0.91 v 0.91 0.9 l 0.01,0.91 v 0.91 0.91 l 0.01,0.91 v 0.91 l 0.01,0.91 v 0.9 l 0.01,0.91 v 0.91 l 0.01,0.91 0.01,0.91 0.01,0.91 v 0.91 l 0.01,0.9 0.01,0.91 0.01,0.91 0.01,0.91 0.01,0.91 0.01,0.91 0.01,0.91 0.01,0.9 0.01,0.91 0.01,0.91 0.02,0.91 0.01,0.91 0.01,0.91 0.01,0.91 0.01,0.9 0.02,0.91 0.01,0.91 0.01,0.91 0.01,0.91 0.02,0.91 0.01,0.91 0.01,0.9 0.01,0.91 0.01,0.91 0.01,0.91 0.01,0.91 0.01,0.91 0.01,0.91 0.01,0.9 0.01,0.91 v 0.91 l 0.01,0.91 0.01,0.91 v 0.91 0.91 l 0.01,0.9 v 0.91 0.91 0.91 0.91 0.91 0.91 l -0.01,0.9 v 0.91 l -0.01,0.91 -0.01,0.91 -0.01,0.91 v 0.91 l -0.02,0.91 -0.01,0.9 -0.01,0.91 -0.01,0.91 -0.02,0.91 -0.02,0.91 -0.01,0.91 -0.02,0.91 -0.02,0.9 -0.02,0.91 -0.02,0.91 -0.02,0.91 -0.03,0.91 -0.02,0.91 -0.03,0.91 -0.02,0.9 -0.03,0.91 -0.03,0.91 -0.03,0.91 -0.02,0.91 -0.03,0.91 -0.03,0.91 -0.04,0.9 -0.03,0.91 -0.03,0.91 -0.03,0.91 -0.03,0.91 -0.03,0.91 -0.04,0.91 -0.03,0.9 -0.03,0.91 -0.04,0.91 -0.03,0.91 -0.03,0.91 -0.04,0.91 -0.03,0.91 -0.03,0.9 -0.03,0.91 -0.04,0.91 -0.03,0.91 -0.03,0.91 -0.03,0.91 -0.03,0.91 -0.03,0.9 -0.02,0.91 -0.03,0.91 -0.03,0.91 -0.03,0.91 -0.02,0.91 -0.02,0.91 -0.03,0.9 -0.02,0.91 -0.02,0.91 -0.02,0.91 -0.02,0.91 -0.02,0.91 -0.01,0.91 -0.02,0.9 -0.01,0.91 -0.01,0.91 -0.02,0.91 v 0.91 l -0.01,0.91 -0.01,0.91 -0.01,0.9 v 0.91 0.91 0.91 0.91 0.91 0.91 l 0.01,0.9 v 0.91 l 0.01,0.91 0.01,0.91 0.01,0.91 0.01,0.91 0.01,0.91 0.02,0.9 0.01,0.91 0.02,0.91 0.02,0.91 0.02,0.91 0.02,0.91 0.02,0.91 0.02,0.9 0.03,0.91 0.02,0.91 0.03,0.91 0.03,0.91 0.03,0.91 0.03,0.91 0.03,0.9 0.03,0.91 0.04,0.91 0.03,0.91 0.03,0.91 0.04,0.91 0.04,0.91 0.04,0.9 0.03,0.91 0.04,0.91 0.04,0.91 0.04,0.91 0.05,0.91 0.04,0.91 0.04,0.9 0.05,0.91 0.04,0.91 0.05,0.91 0.04,0.91 0.05,0.91 0.04,0.91 0.05,0.9 0.05,0.91 0.05,0.91 0.05,0.91 0.04,0.91 0.05,0.91 0.05,0.91 0.05,0.9 0.05,0.91 0.05,0.91 0.05,0.91 0.05,0.91 0.06,0.91 0.05,0.91 0.05,0.9 0.05,0.91 0.05,0.91 0.05,0.91 0.05,0.91 0.05,0.91 0.05,0.91 0.05,0.9 0.05,0.91 0.05,0.91 0.05,0.91 0.05,0.91 0.05,0.91 0.05,0.91 0.05,0.9 0.05,0.91 0.04,0.91 0.05,0.91 0.05,0.91 0.04,0.91 0.05,0.91 0.04,0.9 0.05,0.91 0.04,0.91 0.04,0.91 0.04,0.91 0.04,0.91 0.04,0.9 0.04,0.91 0.04,0.91 0.04,0.91 0.03,0.91 0.04,0.91 0.03,0.91 0.04,0.9 0.03,0.91 0.03,0.91 0.03,0.91 0.03,0.91 0.03,0.91 0.03,0.91 0.03,0.9 0.03,0.91 0.02,0.91 0.03,0.91 0.02,0.91 0.03,0.91 0.02,0.91 0.02,0.9 0.02,0.91 0.02,0.91 0.02,0.91 0.02,0.91 0.02,0.91 0.02,0.91 0.02,0.9 0.01,0.91 0.02,0.91 0.02,0.91 0.01,0.91 0.01,0.91 0.02,0.91 0.01,0.9 0.02,0.91 0.01,0.91 0.01,0.91 0.01,0.91 0.02,0.91 0.01,0.91 0.01,0.9 0.01,0.91 0.01,0.91 0.01,0.91 0.01,0.91 0.01,0.91 0.01,0.91 0.01,0.9 0.01,0.91 0.01,0.91 0.01,0.91 0.01,0.91 0.01,0.91 0.02,0.91 0.01,0.9 0.01,0.91 0.01,0.91 0.01,0.91 0.01,0.91 0.01,0.91 0.01,0.91 0.01,0.9 0.02,0.91 0.01,0.91 0.01,0.91 0.01,0.91 0.02,0.91 0.01,0.91 0.01,0.9 0.02,0.91 0.01,0.91 0.01,0.91 0.02,0.91 0.01,0.91 0.02,0.91 0.01,0.9 0.02,0.91 0.01,0.91 h 1.65 l 0.02,-0.91 0.01,-0.91 0.02,-0.9 0.01,-0.91 0.02,-0.91 0.01,-0.91 0.02,-0.91 0.01,-0.91 0.01,-0.91 0.02,-0.9 0.01,-0.91 0.01,-0.91 0.02,-0.91 0.01,-0.91 0.01,-0.91 0.01,-0.91 0.01,-0.9 0.01,-0.91 0.02,-0.91 0.01,-0.91 0.01,-0.91 0.01,-0.91 0.01,-0.91 0.01,-0.9 0.01,-0.91 0.01,-0.91 0.01,-0.91 0.01,-0.91 0.01,-0.91 0.01,-0.91 0.01,-0.9 0.01,-0.91 0.01,-0.91 0.01,-0.91 0.02,-0.91 0.01,-0.91 0.01,-0.91 0.01,-0.9 0.01,-0.91 0.01,-0.91 0.01,-0.91 0.02,-0.91 0.01,-0.91 0.01,-0.91 0.02,-0.9 0.01,-0.91 0.02,-0.91 0.01,-0.91 0.02,-0.91 0.01,-0.91 0.02,-0.91 0.02,-0.9 0.01,-0.91 0.02,-0.91 0.02,-0.91 0.02,-0.91 0.02,-0.91 0.02,-0.91 0.03,-0.9 0.02,-0.91 0.02,-0.91 0.03,-0.91 0.02,-0.91 0.03,-0.91 0.02,-0.91 0.03,-0.9 0.03,-0.91 0.03,-0.91 0.03,-0.91 0.03,-0.91 0.03,-0.91 0.04,-0.91 0.03,-0.9 0.04,-0.91 0.03,-0.91 0.04,-0.91 0.04,-0.91 0.03,-0.91 0.04,-0.91 0.04,-0.9 0.04,-0.91 0.04,-0.91 0.05,-0.91 0.04,-0.91 0.04,-0.91 0.05,-0.9 0.04,-0.91 0.05,-0.91 0.04,-0.91 0.05,-0.91 0.05,-0.91 0.05,-0.91 0.04,-0.9 0.05,-0.91 0.05,-0.91 0.05,-0.91 0.05,-0.91 0.05,-0.91 0.05,-0.91 0.05,-0.9 0.05,-0.91 0.05,-0.91 0.05,-0.91 0.06,-0.91 0.05,-0.91 0.05,-0.91 0.05,-0.9 0.05,-0.91 0.05,-0.91 0.05,-0.91 0.05,-0.91 0.05,-0.91 0.05,-0.91 0.05,-0.9 0.05,-0.91 0.05,-0.91 0.05,-0.91 0.05,-0.91 0.05,-0.91 0.04,-0.91 0.05,-0.9 0.05,-0.91 0.04,-0.91 0.05,-0.91 0.05,-0.91 0.04,-0.91 0.04,-0.91 0.05,-0.9 0.04,-0.91 0.04,-0.91 0.04,-0.91 0.04,-0.91 0.04,-0.91 0.04,-0.91 0.04,-0.9 0.03,-0.91 0.04,-0.91 0.04,-0.91 0.03,-0.91 0.03,-0.91 0.04,-0.91 0.03,-0.9 0.03,-0.91 0.03,-0.91 0.02,-0.91 0.03,-0.91 0.03,-0.91 0.02,-0.91 0.02,-0.9 0.03,-0.91 0.02,-0.91 0.02,-0.91 0.02,-0.91 0.01,-0.91 0.02,-0.91 0.01,-0.9 0.02,-0.91 0.01,-0.91 0.01,-0.91 0.01,-0.91 v -0.91 l 0.01,-0.91 v -0.9 l 0.01,-0.91 v -0.91 -0.91 -0.91 l -0.01,-0.91 v -0.91 -0.9 l -0.01,-0.91 -0.01,-0.91 -0.01,-0.91 -0.01,-0.91 -0.01,-0.91 -0.02,-0.91 -0.01,-0.9 -0.02,-0.91 -0.02,-0.91 -0.01,-0.91 -0.02,-0.91 -0.02,-0.91 -0.03,-0.91 -0.02,-0.9 -0.02,-0.91 -0.03,-0.91 -0.03,-0.91 -0.02,-0.91 -0.03,-0.91 -0.03,-0.91 -0.03,-0.9 -0.03,-0.91 -0.03,-0.91 -0.03,-0.91 -0.03,-0.91 -0.03,-0.91 -0.03,-0.91 -0.04,-0.9 -0.03,-0.91 -0.03,-0.91 -0.03,-0.91 -0.04,-0.91 -0.03,-0.91 -0.03,-0.91 -0.04,-0.9 -0.03,-0.91 -0.03,-0.91 -0.03,-0.91 -0.04,-0.91 -0.03,-0.91 -0.03,-0.91 -0.03,-0.9 -0.03,-0.91 -0.03,-0.91 -0.03,-0.91 -0.03,-0.91 -0.02,-0.91 -0.03,-0.91 -0.03,-0.9 -0.02,-0.91 -0.03,-0.91 -0.02,-0.91 -0.02,-0.91 -0.02,-0.91 -0.02,-0.91 -0.02,-0.9 -0.02,-0.91 -0.02,-0.91 -0.01,-0.91 -0.02,-0.91 -0.01,-0.91 -0.02,-0.91 -0.01,-0.9 -0.01,-0.91 -0.01,-0.91 -0.01,-0.91 v -0.91 l -0.01,-0.91 -0.01,-0.91 v -0.9 -0.91 -0.91 l -0.01,-0.91 0.01,-0.91 v -0.91 -0.91 -0.9 l 0.01,-0.91 v -0.91 l 0.01,-0.91 v -0.91 l 0.01,-0.91 0.01,-0.91 0.01,-0.9 V 311 l 0.01,-0.91 0.01,-0.91 0.01,-0.91 0.02,-0.91 0.01,-0.91 0.01,-0.9 0.01,-0.91 0.01,-0.91 0.01,-0.91 0.02,-0.91 0.01,-0.91 0.01,-0.91 0.01,-0.9 0.02,-0.91 0.01,-0.91 0.01,-0.91 0.01,-0.91 0.01,-0.91 0.01,-0.91 0.02,-0.9 0.01,-0.91 0.01,-0.91 0.01,-0.91 0.01,-0.91 v -0.91 l 0.01,-0.91 0.01,-0.9 0.01,-0.91 0.01,-0.91 v -0.91 l 0.01,-0.91 0.01,-0.91 v -0.91 l 0.01,-0.9 v -0.91 l 0.01,-0.91 v -0.91 l 0.01,-0.91 v -0.91 -0.91 l 0.01,-0.9 v -0.91 -0.91 l 0.01,-0.91 v -0.91 -0.91 -0.91 l 0.01,-0.9 v -0.91 -0.91 l 0.01,-0.91 v -0.91 l 0.01,-0.91 v -0.91 l 0.01,-0.9 0.01,-0.91 v -0.91 l 0.01,-0.91 0.01,-0.91 0.01,-0.91 0.01,-0.91 0.01,-0.9 0.02,-0.91 0.01,-0.91 0.02,-0.91 0.01,-0.91 0.02,-0.91 0.02,-0.91 0.03,-0.9 0.02,-0.91 0.02,-0.91 0.03,-0.91 0.03,-0.91 0.03,-0.91 0.04,-0.9 0.03,-0.91 0.04,-0.91 0.04,-0.91 0.05,-0.91 0.04,-0.91 0.05,-0.91 0.05,-0.9 0.06,-0.91 0.05,-0.91 0.06,-0.91 0.06,-0.91 0.07,-0.91 0.06,-0.91 0.07,-0.9 0.08,-0.91 0.07,-0.91 0.08,-0.91 0.09,-0.91 0.08,-0.91 0.09,-0.91 0.09,-0.9 0.09,-0.91 0.1,-0.91 0.1,-0.91 0.1,-0.91 0.11,-0.91 0.1,-0.91 0.12,-0.9 0.11,-0.91 0.11,-0.91 0.12,-0.91 0.12,-0.91 0.12,-0.91 0.13,-0.91 0.13,-0.9 0.12,-0.91 0.14,-0.91 0.13,-0.91 0.13,-0.91 0.14,-0.91 0.13,-0.91 0.14,-0.9 0.14,-0.91 0.14,-0.91 0.14,-0.91 0.14,-0.91 0.14,-0.91 0.14,-0.91 0.14,-0.9 0.15,-0.91 0.14,-0.91 0.14,-0.91 0.14,-0.91 0.14,-0.91 0.14,-0.91 0.13,-0.9 0.14,-0.91 0.14,-0.91 0.13,-0.91 0.13,-0.91 0.13,-0.91 0.13,-0.91 0.13,-0.9 0.12,-0.91 0.12,-0.91 0.12,-0.91 0.12,-0.91 0.11,-0.91 0.11,-0.91 0.11,-0.9 0.11,-0.91 0.1,-0.91 0.1,-0.91 0.09,-0.91 0.09,-0.91 0.09,-0.91 0.08,-0.9 0.08,-0.91 0.08,-0.91 0.07,-0.91 0.07,-0.91 0.07,-0.91 0.06,-0.91 0.06,-0.9 0.05,-0.91 0.05,-0.91 0.04,-0.91 0.04,-0.91 0.04,-0.91 0.03,-0.91 0.03,-0.9 0.02,-0.91 0.02,-0.91 0.02,-0.91 0.01,-0.91 0.01,-0.91 v -0.91 -0.9 l -0.01,-0.91 V 152 l -0.02,-0.91 -0.01,-0.91 -0.02,-0.91 -0.03,-0.91 -0.03,-0.9 -0.03,-0.91 -0.03,-0.91 -0.04,-0.91 -0.04,-0.91 -0.05,-0.91 -0.05,-0.91 -0.05,-0.9 -0.06,-0.91 -0.06,-0.91 -0.06,-0.91 -0.06,-0.91 -0.07,-0.91 -0.07,-0.91 -0.08,-0.9 -0.08,-0.91 -0.07,-0.91 -0.09,-0.91 -0.08,-0.91 -0.09,-0.91 -0.09,-0.91 -0.09,-0.9 -0.1,-0.91 -0.09,-0.91 -0.1,-0.91 -0.11,-0.91 -0.1,-0.91 -0.1,-0.91 -0.11,-0.9 -0.11,-0.91 -0.11,-0.91 -0.12,-0.91 -0.11,-0.91 -0.12,-0.91 -0.12,-0.91 -0.12,-0.9 -0.12,-0.91 -0.13,-0.91 -0.12,-0.91 -0.13,-0.91 -0.13,-0.91 -0.13,-0.91 -0.13,-0.9 -0.13,-0.91 -0.14,-0.91 -0.13,-0.91 -0.14,-0.91 -0.14,-0.91 -0.14,-0.91 -0.14,-0.9 -0.14,-0.91 -0.14,-0.91 -0.14,-0.91 -0.15,-0.91 -0.14,-0.91 -0.15,-0.91 -0.14,-0.9 -0.15,-0.91 -0.14,-0.91 -0.15,-0.91 -0.15,-0.91 -0.15,-0.91 -0.15,-0.91 -0.14,-0.9 -0.15,-0.91 -0.15,-0.91 -0.15,-0.91 -0.15,-0.91 -0.15,-0.91 -0.14,-0.91 -0.15,-0.9 -0.15,-0.91 -0.14,-0.91 -0.15,-0.91 -0.14,-0.91 -0.15,-0.91 -0.14,-0.91 z"
           style="fill:#e41a1c;fill-opacity:1;fill-rule:nonzero;stroke:#333333;stroke-width:1.07000005;stroke-linecap:round;stroke-linejoin:round;stroke-miterlimit:10;stroke-dasharray:none;stroke-opacity:1"
           id="path78"
           inkscape:connector-curvature="0" /><path
           d="m 450.27,102.91 -0.05,0.16 -0.06,0.17 -0.06,0.16 -0.06,0.17 -0.07,0.16 -0.07,0.17 -0.08,0.16 -0.09,0.17 -0.1,0.16 -0.11,0.17 -0.11,0.16 -0.13,0.17 -0.14,0.16 -0.15,0.17 -0.17,0.16 -0.17,0.17 -0.19,0.16 -0.2,0.17 -0.21,0.16 -0.22,0.17 -0.23,0.16 -0.23,0.17 -0.25,0.17 -0.25,0.16 -0.26,0.17 -0.26,0.16 -0.27,0.17 -0.27,0.16 -0.27,0.17 -0.27,0.16 -0.27,0.17 -0.27,0.16 -0.27,0.17 -0.27,0.16 -0.27,0.17 -0.27,0.16 -0.27,0.17 -0.28,0.16 -0.28,0.17 -0.28,0.16 -0.29,0.17 -0.3,0.16 -0.3,0.17 -0.32,0.16 -0.33,0.17 -0.34,0.16 -0.35,0.17 -0.38,0.16 -0.39,0.17 -0.4,0.16 -0.43,0.17 -0.45,0.16 -0.47,0.17 -0.48,0.16 -0.51,0.17 -0.53,0.16 -0.55,0.17 -0.57,0.16 -0.59,0.17 -0.6,0.16 -0.62,0.17 -0.65,0.16 -0.65,0.17 -0.67,0.16 -0.69,0.17 -0.69,0.16 -0.71,0.17 -0.71,0.16 -0.72,0.17 -0.72,0.16 -0.72,0.17 -0.73,0.16 -0.72,0.17 -0.71,0.16 -0.71,0.17 -0.7,0.16 -0.68,0.17 -0.67,0.16 -0.65,0.17 -0.62,0.17 -0.61,0.16 -0.58,0.17 -0.55,0.16 -0.53,0.17 -0.49,0.16 -0.47,0.17 -0.44,0.16 -0.41,0.17 -0.38,0.16 -0.36,0.17 -0.33,0.16 -0.32,0.17 -0.3,0.16 -0.29,0.17 -0.28,0.16 -0.28,0.17 -0.28,0.16 -0.29,0.17 -0.31,0.16 -0.34,0.17 -0.36,0.16 -0.39,0.17 -0.43,0.16 -0.48,0.17 -0.53,0.16 -0.6,0.17 -0.65,0.16 -0.71,0.17 -0.78,0.16 -0.87,0.17 -0.94,0.16 -1.01,0.17 -1.08,0.16 -1.16,0.17 -1.23,0.16 -1.32,0.17 -1.38,0.16 -1.44,0.17 -1.5,0.16 -1.55,0.17 -1.62,0.16 -1.66,0.17 -1.69,0.16 -1.72,0.17 -1.74,0.16 -1.77,0.17 -1.77,0.16 -1.77,0.17 -1.77,0.16 -1.76,0.17 -1.74,0.16 -1.71,0.17 -1.68,0.16 -1.65,0.17 -1.62,0.16 -1.57,0.17 -1.52,0.17 -1.47,0.16 -1.42,0.17 -1.38,0.16 -1.32,0.17 -1.26,0.16 -1.2,0.17 -1.15,0.16 -1.09,0.17 -1.04,0.16 -0.98,0.17 -0.91,0.16 -0.86,0.17 -0.81,0.16 -0.75,0.17 -0.7,0.16 -0.64,0.17 -0.57,0.16 -0.53,0.17 -0.47,0.16 -0.42,0.17 -0.37,0.16 -0.3,0.17 -0.25,0.16 -0.21,0.17 -0.15,0.16 -0.11,0.17 -0.05,0.16 v 0.17 l 0.05,0.16 0.09,0.17 0.14,0.16 0.18,0.17 0.24,0.16 0.27,0.17 0.32,0.16 0.36,0.17 0.4,0.16 0.45,0.17 0.49,0.16 0.53,0.17 0.57,0.16 0.6,0.17 0.65,0.16 0.68,0.17 0.71,0.16 0.74,0.17 0.76,0.16 0.79,0.17 0.81,0.16 0.83,0.17 0.83,0.16 0.85,0.17 0.84,0.16 0.84,0.17 0.83,0.16 0.82,0.17 0.8,0.17 0.78,0.16 0.75,0.17 0.72,0.16 0.69,0.17 0.65,0.16 0.62,0.17 0.59,0.16 0.54,0.17 0.5,0.16 0.47,0.17 0.44,0.16 0.42,0.17 0.38,0.16 0.36,0.17 0.35,0.16 0.33,0.17 0.33,0.16 0.32,0.17 0.33,0.16 0.34,0.17 0.36,0.16 0.37,0.17 0.4,0.16 0.43,0.17 0.47,0.16 0.51,0.17 0.54,0.16 0.59,0.17 0.63,0.16 0.68,0.17 0.73,0.16 0.76,0.17 0.81,0.16 0.84,0.17 0.89,0.16 0.92,0.17 0.94,0.16 0.97,0.17 0.97,0.16 0.99,0.17 0.99,0.16 0.98,0.17 0.97,0.16 0.95,0.17 0.93,0.16 0.89,0.17 0.85,0.16 0.8,0.17 0.76,0.16 0.7,0.17 0.65,0.16 0.58,0.17 0.52,0.16 0.46,0.17 0.41,0.16 0.36,0.17 0.29,0.16 0.24,0.17 0.2,0.17 0.16,0.16 0.13,0.17 0.1,0.16 0.08,0.17 0.06,0.16 0.07,0.17 0.06,0.16 0.07,0.17 0.08,0.16 0.11,0.17 0.13,0.16 0.16,0.17 0.19,0.16 0.23,0.17 0.27,0.16 0.32,0.17 0.35,0.16 0.39,0.17 0.44,0.16 0.48,0.17 0.51,0.16 0.55,0.17 0.59,0.16 0.61,0.17 0.65,0.16 0.67,0.17 0.69,0.16 0.71,0.17 0.73,0.16 0.74,0.17 0.76,0.16 0.77,0.17 0.78,0.16 0.79,0.17 0.8,0.16 0.81,0.17 0.81,0.16 0.83,0.17 0.84,0.16 0.84,0.17 0.86,0.16 0.86,0.17 0.87,0.16 0.89,0.17 0.89,0.16 0.89,0.17 0.9,0.16 0.91,0.17 0.9,0.16 0.9,0.17 0.9,0.16 0.89,0.17 0.88,0.16 0.86,0.17 0.85,0.16 0.83,0.17 0.8,0.17 0.77,0.16 0.74,0.17 0.71,0.16 0.68,0.17 0.64,0.16 0.6,0.17 0.56,0.16 0.52,0.17 0.49,0.16 0.46,0.17 0.41,0.16 0.38,0.17 0.35,0.16 0.33,0.17 0.3,0.16 0.27,0.17 0.26,0.16 0.23,0.17 0.23,0.16 0.21,0.17 0.2,0.16 0.19,0.17 0.19,0.16 0.19,0.17 0.19,0.16 0.18,0.17 0.19,0.16 0.19,0.17 0.19,0.16 0.19,0.17 0.19,0.16 0.2,0.17 0.2,0.16 0.2,0.17 0.2,0.16 0.2,0.17 0.21,0.16 0.2,0.17 0.2,0.16 0.2,0.17 0.2,0.16 0.19,0.17 0.2,0.16 0.19,0.17 0.18,0.16 0.19,0.17 0.18,0.16 0.18,0.17 0.17,0.16 0.17,0.17 0.17,0.16 0.16,0.17 0.16,0.16 0.16,0.17 0.15,0.16 0.15,0.17 0.14,0.17 0.14,0.16 0.14,0.17 0.13,0.16 0.13,0.17 0.12,0.16 0.12,0.17 0.12,0.16 0.12,0.17 0.11,0.16 0.11,0.17 0.11,0.16 0.11,0.17 0.1,0.16 0.11,0.17 0.1,0.16 0.1,0.17 0.1,0.16 0.11,0.17 0.1,0.16 0.1,0.17 0.1,0.16 0.1,0.17 0.1,0.16 0.09,0.17 0.1,0.16 0.09,0.17 0.09,0.16 0.09,0.17 0.08,0.16 0.08,0.17 0.07,0.16 0.07,0.17 0.06,0.16 0.05,0.17 0.05,0.16 0.03,0.17 0.03,0.16 0.01,0.17 0.01,0.16 v 0.17 l -0.02,0.16 -0.02,0.17 -0.03,0.16 -0.05,0.17 -0.05,0.16 -0.06,0.17 -0.07,0.16 -0.07,0.17 -0.09,0.16 -0.08,0.17 -0.09,0.16 -0.1,0.17 -0.09,0.16 -0.1,0.17 -0.09,0.16 -0.1,0.17 -0.09,0.17 -0.08,0.16 -0.08,0.17 -0.07,0.16 -0.06,0.17 -0.06,0.16 -0.04,0.17 -0.03,0.16 -0.02,0.17 -0.01,0.16 v 0.17 l 0.01,0.16 0.03,0.17 0.04,0.16 0.04,0.17 0.06,0.16 0.07,0.17 0.07,0.16 0.09,0.17 0.09,0.16 0.09,0.17 0.11,0.16 0.1,0.17 0.11,0.16 0.12,0.17 0.11,0.16 0.12,0.17 0.11,0.16 0.11,0.17 0.11,0.16 0.11,0.17 0.1,0.16 0.1,0.17 0.1,0.16 0.09,0.17 0.09,0.16 0.08,0.17 0.08,0.16 0.07,0.17 0.06,0.16 0.06,0.17 0.06,0.16 0.05,0.17 0.04,0.16 0.04,0.17 0.04,0.16 0.03,0.17 0.02,0.16 0.02,0.17 0.02,0.16 0.01,0.17 0.02,0.16 v 0.17 l 0.01,0.16 v 0.17 l -0.01,0.16 -0.01,0.17 -0.01,0.17 -0.01,0.16 -0.01,0.17 -0.02,0.16 -0.03,0.17 -0.02,0.16 -0.03,0.17 -0.03,0.16 -0.03,0.17 -0.04,0.16 -0.04,0.17 -0.04,0.16 -0.04,0.17 -0.04,0.16 -0.05,0.17 -0.04,0.16 -0.05,0.17 -0.04,0.16 -0.05,0.17 -0.04,0.16 -0.04,0.17 -0.04,0.16 -0.04,0.17 -0.03,0.16 -0.04,0.17 -0.02,0.16 -0.02,0.17 -0.02,0.16 -0.01,0.17 -0.01,0.16 -0.01,0.17 h 2.19 v -0.17 l -0.01,-0.16 -0.01,-0.17 -0.02,-0.16 -0.02,-0.17 -0.03,-0.16 -0.03,-0.17 -0.04,-0.16 -0.03,-0.17 -0.04,-0.16 -0.04,-0.17 -0.05,-0.16 -0.04,-0.17 -0.05,-0.16 -0.04,-0.17 -0.05,-0.16 -0.04,-0.17 -0.05,-0.16 -0.04,-0.17 -0.04,-0.16 -0.04,-0.17 -0.03,-0.16 -0.04,-0.17 -0.03,-0.16 -0.02,-0.17 -0.03,-0.16 -0.02,-0.17 -0.02,-0.16 -0.02,-0.17 -0.01,-0.16 -0.01,-0.17 -0.01,-0.17 v -0.16 -0.17 -0.16 l 0.01,-0.17 0.01,-0.16 0.01,-0.17 0.02,-0.16 0.02,-0.17 0.03,-0.16 0.03,-0.17 0.03,-0.16 0.04,-0.17 0.05,-0.16 0.05,-0.17 0.05,-0.16 0.06,-0.17 0.07,-0.16 0.07,-0.17 0.07,-0.16 0.09,-0.17 0.08,-0.16 0.09,-0.17 0.1,-0.16 0.1,-0.17 0.1,-0.16 0.11,-0.17 0.11,-0.16 0.11,-0.17 0.12,-0.16 0.11,-0.17 0.12,-0.16 0.11,-0.17 0.11,-0.16 0.11,-0.17 0.1,-0.16 0.1,-0.17 0.09,-0.16 0.08,-0.17 0.08,-0.16 0.06,-0.17 0.06,-0.16 0.05,-0.17 0.03,-0.16 0.03,-0.17 0.01,-0.16 v -0.17 l -0.01,-0.16 -0.02,-0.17 -0.03,-0.16 -0.04,-0.17 -0.06,-0.16 -0.06,-0.17 -0.07,-0.16 -0.08,-0.17 -0.08,-0.16 -0.09,-0.17 -0.09,-0.17 -0.1,-0.16 -0.09,-0.17 -0.1,-0.16 -0.09,-0.17 -0.09,-0.16 -0.09,-0.17 -0.08,-0.16 -0.08,-0.17 -0.07,-0.16 -0.06,-0.17 -0.05,-0.16 -0.04,-0.17 -0.04,-0.16 -0.02,-0.17 -0.01,-0.16 -0.01,-0.17 0.01,-0.16 0.02,-0.17 0.02,-0.16 0.04,-0.17 0.04,-0.16 0.06,-0.17 0.06,-0.16 0.06,-0.17 0.07,-0.16 0.08,-0.17 0.09,-0.16 0.08,-0.17 0.09,-0.16 0.1,-0.17 0.09,-0.16 0.1,-0.17 0.1,-0.16 0.1,-0.17 0.1,-0.16 0.1,-0.17 0.1,-0.16 0.1,-0.17 0.1,-0.16 0.1,-0.17 0.11,-0.16 0.1,-0.17 0.11,-0.16 0.1,-0.17 0.11,-0.16 0.11,-0.17 0.11,-0.16 0.12,-0.17 0.12,-0.16 0.12,-0.17 0.13,-0.16 0.12,-0.17 0.14,-0.16 0.13,-0.17 0.14,-0.16 0.15,-0.17 0.14,-0.17 0.15,-0.16 0.16,-0.17 0.16,-0.16 0.16,-0.17 0.17,-0.16 0.17,-0.17 0.17,-0.16 0.18,-0.17 0.18,-0.16 0.19,-0.17 0.19,-0.16 0.19,-0.17 0.19,-0.16 0.2,-0.17 0.2,-0.16 0.2,-0.17 0.2,-0.16 0.2,-0.17 0.2,-0.16 0.2,-0.17 0.2,-0.16 0.2,-0.17 0.2,-0.16 0.2,-0.17 0.19,-0.16 0.2,-0.17 0.19,-0.16 0.18,-0.17 0.19,-0.16 0.19,-0.17 0.18,-0.16 0.19,-0.17 0.19,-0.16 0.19,-0.17 0.21,-0.16 0.21,-0.17 0.22,-0.16 0.24,-0.17 0.25,-0.16 0.28,-0.17 0.3,-0.16 0.32,-0.17 0.35,-0.16 0.38,-0.17 0.42,-0.16 0.45,-0.17 0.49,-0.16 0.53,-0.17 0.56,-0.16 0.6,-0.17 0.64,-0.16 0.67,-0.17 0.71,-0.16 0.74,-0.17 0.77,-0.16 0.81,-0.17 0.82,-0.17 0.85,-0.16 0.86,-0.17 0.88,-0.16 0.89,-0.17 0.9,-0.16 0.9,-0.17 0.91,-0.16 0.9,-0.17 0.9,-0.16 0.9,-0.17 0.89,-0.16 0.88,-0.17 0.87,-0.16 0.87,-0.17 0.85,-0.16 0.85,-0.17 0.83,-0.16 0.83,-0.17 0.82,-0.16 0.81,-0.17 0.8,-0.16 0.79,-0.17 0.78,-0.16 0.77,-0.17 0.75,-0.16 0.75,-0.17 0.72,-0.16 0.72,-0.17 0.69,-0.16 0.67,-0.17 0.64,-0.16 0.62,-0.17 0.58,-0.16 0.55,-0.17 0.52,-0.16 0.48,-0.17 0.43,-0.16 0.39,-0.17 0.36,-0.16 0.31,-0.17 0.27,-0.16 0.24,-0.17 0.19,-0.16 0.16,-0.17 0.13,-0.16 0.1,-0.17 0.09,-0.16 0.07,-0.17 0.06,-0.16 0.06,-0.17 0.07,-0.16 0.07,-0.17 0.1,-0.16 0.13,-0.17 0.17,-0.16 0.2,-0.17 0.24,-0.17 0.29,-0.16 0.35,-0.17 0.41,-0.16 0.47,-0.17 0.52,-0.16 0.58,-0.17 0.64,-0.16 0.71,-0.17 0.75,-0.16 0.81,-0.17 0.84,-0.16 0.89,-0.17 0.93,-0.16 0.95,-0.17 0.97,-0.16 0.98,-0.17 0.99,-0.16 0.99,-0.17 0.98,-0.16 0.96,-0.17 0.95,-0.16 0.91,-0.17 0.89,-0.16 0.84,-0.17 0.81,-0.16 0.77,-0.17 0.72,-0.16 0.69,-0.17 0.62,-0.16 0.59,-0.17 0.54,-0.16 0.51,-0.17 0.47,-0.16 0.43,-0.17 0.4,-0.16 0.38,-0.17 0.35,-0.16 0.34,-0.17 0.33,-0.16 0.33,-0.17 0.32,-0.16 0.34,-0.17 0.34,-0.16 0.36,-0.17 0.39,-0.16 0.41,-0.17 0.44,-0.16 0.47,-0.17 0.51,-0.16 0.54,-0.17 0.58,-0.16 0.62,-0.17 0.65,-0.16 0.69,-0.17 0.72,-0.16 0.75,-0.17 0.78,-0.16 0.8,-0.17 0.82,-0.17 0.83,-0.16 0.84,-0.17 0.85,-0.16 0.84,-0.17 0.83,-0.16 0.83,-0.17 0.81,-0.16 0.79,-0.17 0.77,-0.16 0.73,-0.17 0.72,-0.16 0.68,-0.17 0.64,-0.16 0.6,-0.17 0.57,-0.16 0.53,-0.17 0.49,-0.16 0.45,-0.17 0.4,-0.16 0.36,-0.17 0.32,-0.16 0.28,-0.17 0.23,-0.16 0.18,-0.17 0.14,-0.16 0.09,-0.17 0.05,-0.16 v -0.17 l -0.05,-0.16 -0.11,-0.17 -0.15,-0.16 -0.2,-0.17 -0.26,-0.16 -0.3,-0.17 -0.37,-0.16 -0.42,-0.17 -0.47,-0.16 -0.52,-0.17 -0.58,-0.16 -0.64,-0.17 -0.7,-0.16 -0.75,-0.17 -0.8,-0.16 -0.86,-0.17 -0.92,-0.16 -0.98,-0.17 -1.04,-0.16 -1.09,-0.17 -1.15,-0.16 -1.2,-0.17 -1.26,-0.16 -1.32,-0.17 -1.37,-0.16 -1.42,-0.17 -1.48,-0.16 -1.52,-0.17 -1.57,-0.17 -1.61,-0.16 -1.66,-0.17 -1.68,-0.16 -1.71,-0.17 -1.74,-0.16 -1.76,-0.17 -1.77,-0.16 -1.77,-0.17 -1.77,-0.16 -1.76,-0.17 -1.75,-0.16 -1.72,-0.17 -1.69,-0.16 -1.66,-0.17 -1.61,-0.16 -1.56,-0.17 -1.5,-0.16 -1.44,-0.17 -1.38,-0.16 -1.31,-0.17 -1.24,-0.16 -1.15,-0.17 -1.09,-0.16 -1.01,-0.17 -0.94,-0.16 -0.86,-0.17 -0.78,-0.16 -0.72,-0.17 -0.65,-0.16 -0.59,-0.17 -0.54,-0.16 -0.48,-0.17 -0.43,-0.16 -0.39,-0.17 -0.36,-0.16 -0.33,-0.17 -0.31,-0.16 -0.29,-0.17 -0.29,-0.16 -0.28,-0.17 -0.28,-0.16 -0.29,-0.17 -0.3,-0.16 -0.31,-0.17 -0.34,-0.16 -0.36,-0.17 -0.38,-0.16 -0.41,-0.17 -0.44,-0.16 -0.47,-0.17 -0.49,-0.16 -0.52,-0.17 -0.55,-0.16 -0.59,-0.17 -0.6,-0.16 -0.63,-0.17 -0.65,-0.17 -0.66,-0.16 -0.69,-0.17 -0.69,-0.16 -0.71,-0.17 -0.72,-0.16 -0.72,-0.17 -0.72,-0.16 -0.73,-0.17 -0.72,-0.16 -0.72,-0.17 -0.71,-0.16 -0.71,-0.17 -0.69,-0.16 -0.68,-0.17 -0.67,-0.16 -0.66,-0.17 -0.64,-0.16 -0.63,-0.17 -0.6,-0.16 -0.59,-0.17 -0.57,-0.16 -0.55,-0.17 -0.53,-0.16 -0.5,-0.17 -0.49,-0.16 -0.47,-0.17 -0.44,-0.16 -0.43,-0.17 -0.41,-0.16 -0.39,-0.17 -0.37,-0.16 -0.36,-0.17 -0.34,-0.16 -0.33,-0.17 -0.31,-0.16 -0.31,-0.17 -0.3,-0.16 -0.29,-0.17 -0.28,-0.16 -0.28,-0.17 -0.27,-0.16 -0.27,-0.17 -0.28,-0.16 -0.27,-0.17 -0.27,-0.16 -0.27,-0.17 -0.27,-0.16 -0.27,-0.17 -0.27,-0.16 -0.27,-0.17 -0.27,-0.16 -0.26,-0.17 -0.27,-0.16 -0.25,-0.17 -0.26,-0.16 -0.24,-0.17 -0.24,-0.17 -0.23,-0.16 -0.22,-0.17 -0.21,-0.16 -0.2,-0.17 -0.19,-0.16 -0.17,-0.17 -0.16,-0.16 -0.15,-0.17 -0.14,-0.16 -0.13,-0.17 -0.12,-0.16 -0.11,-0.17 -0.09,-0.16 -0.09,-0.17 -0.08,-0.16 -0.08,-0.17 -0.07,-0.16 -0.06,-0.17 -0.06,-0.16 -0.05,-0.17 -0.06,-0.16 z"
           style="fill:#377eb8;fill-opacity:1;fill-rule:nonzero;stroke:#333333;stroke-width:1.07000005;stroke-linecap:round;stroke-linejoin:round;stroke-miterlimit:10;stroke-dasharray:none;stroke-opacity:1"
           id="path80"
           inkscape:connector-curvature="0" /><path
           d="m 677.85,89.38 -2.47,0.89 -2.78,0.89 -3.08,0.9 -3.3,0.89 -3.46,0.89 -3.56,0.89 -3.56,0.89 -3.49,0.89 -3.33,0.89 -3.09,0.89 -2.77,0.9 -2.39,0.89 -1.98,0.89 -1.51,0.89 -1.08,0.89 -0.68,0.89 -0.33,0.89 -0.03,0.89 0.22,0.9 0.4,0.89 0.52,0.89 0.61,0.89 0.64,0.89 0.66,0.89 0.67,0.89 0.67,0.89 0.69,0.9 0.72,0.89 0.79,0.89 0.84,0.89 0.93,0.89 1.01,0.89 1.08,0.89 1.15,0.89 1.2,0.9 1.22,0.89 1.23,0.89 1.22,0.89 1.18,0.89 1.16,0.89 1.12,0.89 1.08,0.89 1.04,0.9 1.01,0.89 0.99,0.89 0.95,0.89 0.92,0.89 0.88,0.89 0.82,0.89 0.77,0.9 0.69,0.89 0.61,0.89 0.52,0.89 0.41,0.89 0.32,0.89 0.21,0.89 0.12,0.89 0.02,0.9 -0.03,0.89 -0.07,0.89 -0.07,0.89 -0.06,0.89 -0.01,0.89 0.07,0.89 0.16,0.89 0.27,0.9 0.4,0.89 0.52,0.89 0.64,0.89 0.75,0.89 0.84,0.89 0.89,0.89 0.94,0.89 0.95,0.9 0.95,0.89 0.94,0.89 0.9,0.89 0.87,0.89 0.82,0.89 0.78,0.89 0.72,0.89 0.69,0.9 0.64,0.89 0.6,0.89 0.57,0.89 0.53,0.89 0.49,0.89 0.45,0.89 0.41,0.89 0.37,0.9 0.32,0.89 0.27,0.89 0.24,0.89 0.19,0.89 0.15,0.89 0.12,0.89 0.08,0.89 0.06,0.9 0.02,0.89 v 0.89 l -0.03,0.89 -0.05,0.89 -0.07,0.89 -0.09,0.89 -0.11,0.89 -0.12,0.9 -0.14,0.89 -0.14,0.89 -0.14,0.89 -0.13,0.89 -0.13,0.89 -0.1,0.89 -0.08,0.89 -0.05,0.9 -0.01,0.89 0.02,0.89 0.06,0.89 0.1,0.89 0.13,0.89 0.16,0.89 0.19,0.89 0.21,0.9 0.23,0.89 0.24,0.89 0.24,0.89 0.24,0.89 0.23,0.89 0.21,0.89 0.2,0.89 0.17,0.9 0.15,0.89 0.11,0.89 0.09,0.89 0.07,0.89 0.04,0.89 0.03,0.89 0.03,0.9 0.02,0.89 0.03,0.89 0.04,0.89 0.05,0.89 0.07,0.89 0.08,0.89 0.09,0.89 0.1,0.9 0.1,0.89 0.09,0.89 0.1,0.89 0.08,0.89 0.08,0.89 0.07,0.89 0.06,0.89 0.05,0.9 0.05,0.89 0.04,0.89 0.05,0.89 0.04,0.89 0.05,0.89 0.04,0.89 0.05,0.89 0.04,0.9 0.04,0.89 0.03,0.89 0.01,0.89 0.01,0.89 v 0.89 l -0.02,0.89 -0.02,0.89 -0.03,0.9 -0.02,0.89 -0.03,0.89 -0.01,0.89 0.01,0.89 0.02,0.89 0.04,0.89 0.05,0.89 0.07,0.9 0.08,0.89 0.09,0.89 0.09,0.89 0.09,0.89 0.09,0.89 0.08,0.89 0.06,0.89 0.05,0.9 0.04,0.89 0.03,0.89 0.01,0.89 -0.01,0.89 -0.02,0.89 -0.03,0.89 -0.05,0.89 -0.05,0.9 -0.07,0.89 -0.07,0.89 -0.07,0.89 -0.07,0.89 -0.07,0.89 -0.06,0.89 -0.04,0.89 -0.04,0.9 -0.01,0.89 -0.01,0.89 0.01,0.89 0.02,0.89 0.03,0.89 0.04,0.89 0.04,0.89 0.04,0.9 0.03,0.89 0.04,0.89 0.02,0.89 0.03,0.89 0.01,0.89 0.02,0.89 0.01,0.89 v 0.9 l 0.01,0.89 0.01,0.89 v 0.89 l 0.01,0.89 0.01,0.89 0.02,0.89 0.02,0.9 0.03,0.89 0.03,0.89 0.03,0.89 0.05,0.89 0.04,0.89 0.05,0.89 0.05,0.89 0.05,0.9 0.05,0.89 0.04,0.89 0.03,0.89 0.03,0.89 0.02,0.89 0.01,0.89 0.01,0.89 v 0.9 l -0.01,0.89 -0.01,0.89 -0.01,0.89 -0.01,0.89 -0.02,0.89 -0.01,0.89 -0.01,0.89 -0.01,0.9 -0.01,0.89 -0.01,0.89 -0.02,0.89 -0.01,0.89 -0.02,0.89 -0.03,0.89 -0.02,0.89 -0.03,0.9 -0.03,0.89 -0.03,0.89 -0.02,0.89 -0.03,0.89 -0.01,0.89 -0.01,0.89 v 0.89 l 0.01,0.9 0.02,0.89 0.03,0.89 0.03,0.89 0.05,0.89 0.05,0.89 0.05,0.89 0.05,0.89 0.04,0.9 0.05,0.89 0.04,0.89 0.04,0.89 0.03,0.89 0.02,0.89 0.01,0.89 0.01,0.89 v 0.9 0.89 l -0.01,0.89 -0.01,0.89 -0.02,0.89 -0.02,0.89 -0.02,0.89 -0.03,0.89 -0.03,0.9 -0.04,0.89 -0.03,0.89 -0.03,0.89 -0.04,0.89 -0.03,0.89 -0.03,0.89 -0.03,0.89 -0.03,0.9 -0.03,0.89 -0.02,0.89 -0.02,0.89 -0.02,0.89 -0.01,0.89 v 0.89 0.9 0.89 l 0.01,0.89 0.01,0.89 0.02,0.89 0.02,0.89 0.02,0.89 0.03,0.89 0.02,0.9 0.03,0.89 0.02,0.89 0.02,0.89 0.02,0.89 0.01,0.89 0.01,0.89 0.01,0.89 v 0.9 0.89 l -0.02,0.89 -0.02,0.89 -0.02,0.89 -0.03,0.89 -0.03,0.89 -0.03,0.89 -0.03,0.9 -0.02,0.89 -0.02,0.89 -0.01,0.89 -0.01,0.89 v 0.89 0.89 0.89 l 0.01,0.9 v 0.89 l 0.01,0.89 0.01,0.89 v 0.89 l 0.01,0.89 v 0.89 0.89 0.9 0.89 0.89 0.89 0.89 0.89 l -0.01,0.89 -0.01,0.89 -0.01,0.9 -0.01,0.89 -0.01,0.89 -0.01,0.89 v 0.89 0.89 0.89 l 0.01,0.89 0.01,0.9 0.02,0.89 0.02,0.89 0.02,0.89 0.03,0.89 0.02,0.89 0.02,0.89 0.02,0.89 0.01,0.9 0.01,0.89 0.01,0.89 v 0.89 0.89 l -0.01,0.89 -0.02,0.89 -0.02,0.89 -0.03,0.9 -0.02,0.89 -0.03,0.89 -0.03,0.89 -0.03,0.89 -0.02,0.89 -0.02,0.89 -0.02,0.89 v 0.9 l -0.01,0.89 v 0.89 l 0.01,0.89 v 0.89 l 0.01,0.89 v 0.89 l 0.01,0.9 v 0.89 0.89 l 0.01,0.89 v 0.89 l 0.01,0.89 0.01,0.89 0.02,0.89 0.02,0.9 0.03,0.89 0.03,0.89 0.04,0.89 0.05,0.89 0.05,0.89 0.04,0.89 0.05,0.89 0.04,0.9 0.04,0.89 0.03,0.89 0.03,0.89 0.03,0.89 0.02,0.89 0.01,0.89 0.02,0.89 0.01,0.9 v 0.89 l 0.01,0.89 v 0.89 0.89 0.89 0.89 l 0.01,0.89 v 0.9 0.89 0.89 0.89 0.89 0.89 0.89 0.89 0.9 0.89 0.89 0.89 0.89 0.89 0.89 0.89 l -0.01,0.9 v 0.89 0.89 0.89 0.89 l -0.01,0.89 v 0.89 l -0.01,0.89 -0.01,0.9 -0.01,0.89 -0.01,0.89 -0.02,0.89 -0.02,0.89 -0.02,0.89 -0.02,0.89 -0.02,0.89 -0.02,0.9 -0.02,0.89 -0.02,0.89 -0.01,0.89 v 0.89 0.89 0.89 l 0.01,0.89 0.02,0.9 0.02,0.89 0.02,0.89 0.02,0.89 0.02,0.89 0.02,0.89 0.02,0.89 0.01,0.89 0.02,0.9 0.01,0.89 0.01,0.89 0.01,0.89 v 0.89 l 0.01,0.89 v 0.89 0.9 0.89 0.89 l 0.01,0.89 v 0.89 0.89 0.89 0.89 0.9 0.89 0.89 0.89 0.89 l -0.01,0.89 v 0.89 0.89 0.9 0.89 0.89 l -0.01,0.89 -0.01,0.89 v 0.89 l -0.01,0.89 -0.02,0.89 -0.01,0.9 -0.02,0.89 -0.02,0.89 -0.02,0.89 -0.02,0.89 -0.02,0.89 -0.02,0.89 -0.02,0.89 -0.01,0.9 -0.01,0.89 v 0.89 h 0.46 l -0.01,-0.89 v -0.89 l -0.02,-0.9 -0.02,-0.89 -0.01,-0.89 -0.03,-0.89 -0.02,-0.89 -0.02,-0.89 -0.02,-0.89 -0.02,-0.89 -0.01,-0.9 -0.01,-0.89 -0.01,-0.89 -0.01,-0.89 -0.01,-0.89 v -0.89 l -0.01,-0.89 v -0.89 -0.9 -0.89 -0.89 -0.89 -0.89 -0.89 -0.89 -0.89 -0.9 -0.89 -0.89 -0.89 -0.89 -0.89 -0.89 -0.89 -0.9 -0.89 l 0.01,-0.89 v -0.89 l 0.01,-0.89 0.01,-0.89 0.01,-0.89 0.02,-0.9 0.01,-0.89 0.02,-0.89 0.02,-0.89 0.02,-0.89 0.03,-0.89 0.02,-0.89 0.01,-0.89 0.02,-0.9 0.01,-0.89 v -0.89 -0.89 -0.89 l -0.01,-0.89 -0.02,-0.89 -0.02,-0.89 -0.02,-0.9 -0.02,-0.89 -0.02,-0.89 -0.02,-0.89 -0.02,-0.89 -0.01,-0.89 -0.02,-0.89 -0.01,-0.89 -0.01,-0.9 -0.01,-0.89 v -0.89 l -0.01,-0.89 v -0.89 -0.89 -0.89 -0.89 -0.9 -0.89 -0.89 -0.89 -0.89 -0.89 -0.89 -0.89 -0.9 -0.89 -0.89 -0.89 -0.89 -0.89 -0.89 -0.89 -0.9 -0.89 -0.89 -0.89 -0.89 -0.89 l 0.01,-0.89 0.01,-0.89 0.01,-0.9 0.01,-0.89 0.01,-0.89 0.02,-0.89 0.03,-0.89 0.03,-0.89 0.03,-0.89 0.04,-0.89 0.04,-0.9 0.05,-0.89 0.05,-0.89 0.04,-0.89 0.05,-0.89 0.04,-0.89 0.03,-0.89 0.03,-0.89 0.03,-0.9 0.01,-0.89 0.01,-0.89 0.01,-0.89 0.01,-0.89 v -0.89 -0.89 -0.89 l 0.01,-0.9 v -0.89 l 0.01,-0.89 v -0.89 l 0.01,-0.89 v -0.89 -0.89 l -0.01,-0.9 -0.02,-0.89 -0.01,-0.89 -0.03,-0.89 -0.02,-0.89 -0.03,-0.89 -0.03,-0.89 -0.03,-0.89 -0.03,-0.9 -0.02,-0.89 -0.01,-0.89 -0.01,-0.89 -0.01,-0.89 v -0.89 l 0.01,-0.89 0.01,-0.89 0.01,-0.9 0.02,-0.89 0.02,-0.89 0.03,-0.89 0.02,-0.89 0.02,-0.89 0.02,-0.89 0.02,-0.89 0.01,-0.9 0.01,-0.89 0.01,-0.89 -0.01,-0.89 v -0.89 l -0.01,-0.89 -0.01,-0.89 -0.01,-0.89 -0.01,-0.9 -0.01,-0.89 v -0.89 l -0.01,-0.89 v -0.89 -0.89 -0.89 -0.89 -0.9 -0.89 l 0.01,-0.89 v -0.89 l 0.01,-0.89 v -0.89 l 0.01,-0.89 v -0.89 l 0.01,-0.9 v -0.89 l 0.01,-0.89 -0.01,-0.89 -0.01,-0.89 -0.01,-0.89 -0.02,-0.89 -0.02,-0.89 -0.03,-0.9 -0.03,-0.89 -0.03,-0.89 -0.03,-0.89 -0.02,-0.89 -0.02,-0.89 -0.01,-0.89 -0.01,-0.89 v -0.9 l 0.01,-0.89 0.01,-0.89 0.01,-0.89 0.02,-0.89 0.02,-0.89 0.03,-0.89 0.02,-0.89 0.02,-0.9 0.03,-0.89 0.02,-0.89 0.02,-0.89 0.02,-0.89 0.01,-0.89 0.01,-0.89 0.01,-0.89 -0.01,-0.9 v -0.89 l -0.01,-0.89 -0.02,-0.89 -0.02,-0.89 -0.02,-0.89 -0.03,-0.89 -0.03,-0.9 -0.03,-0.89 -0.03,-0.89 -0.03,-0.89 -0.03,-0.89 -0.04,-0.89 -0.03,-0.89 -0.03,-0.89 -0.03,-0.9 -0.03,-0.89 -0.03,-0.89 -0.02,-0.89 -0.02,-0.89 -0.01,-0.89 -0.01,-0.89 v -0.89 -0.9 l 0.01,-0.89 0.01,-0.89 0.03,-0.89 0.03,-0.89 0.03,-0.89 0.04,-0.89 0.05,-0.89 0.05,-0.9 0.05,-0.89 0.05,-0.89 0.04,-0.89 0.05,-0.89 0.03,-0.89 0.03,-0.89 0.02,-0.89 0.01,-0.9 v -0.89 l -0.01,-0.89 -0.01,-0.89 -0.02,-0.89 -0.03,-0.89 -0.03,-0.89 -0.03,-0.89 -0.03,-0.9 -0.02,-0.89 -0.02,-0.89 -0.02,-0.89 -0.02,-0.89 -0.02,-0.89 -0.01,-0.89 -0.01,-0.89 -0.01,-0.9 -0.01,-0.89 -0.01,-0.89 -0.02,-0.89 -0.01,-0.89 -0.01,-0.89 -0.01,-0.89 v -0.89 l -0.01,-0.9 0.01,-0.89 0.01,-0.89 0.02,-0.89 0.03,-0.89 0.03,-0.89 0.05,-0.89 0.04,-0.89 0.05,-0.9 0.05,-0.89 0.05,-0.89 0.05,-0.89 0.04,-0.89 0.03,-0.89 0.04,-0.89 0.02,-0.89 0.02,-0.9 0.02,-0.89 0.01,-0.89 0.01,-0.89 0.01,-0.89 v -0.89 l 0.01,-0.89 0.01,-0.9 V 281 l 0.02,-0.89 0.02,-0.89 0.02,-0.89 0.03,-0.89 0.03,-0.89 0.04,-0.89 0.03,-0.9 0.04,-0.89 0.04,-0.89 0.03,-0.89 0.02,-0.89 0.01,-0.89 v -0.89 l -0.02,-0.89 -0.03,-0.9 -0.05,-0.89 -0.06,-0.89 -0.06,-0.89 -0.08,-0.89 -0.07,-0.89 -0.07,-0.89 -0.06,-0.89 -0.06,-0.9 -0.05,-0.89 -0.03,-0.89 -0.02,-0.89 v -0.89 l 0.01,-0.89 0.02,-0.89 0.04,-0.89 0.05,-0.9 0.07,-0.89 0.07,-0.89 0.09,-0.89 0.09,-0.89 0.09,-0.89 0.09,-0.89 0.08,-0.89 0.07,-0.9 0.06,-0.89 0.03,-0.89 0.02,-0.89 0.01,-0.89 -0.01,-0.89 -0.02,-0.89 -0.03,-0.89 -0.03,-0.9 -0.02,-0.89 -0.02,-0.89 v -0.89 l 0.01,-0.89 0.02,-0.89 0.03,-0.89 0.03,-0.89 0.05,-0.9 0.04,-0.89 0.05,-0.89 0.04,-0.89 0.05,-0.89 0.04,-0.89 0.04,-0.89 0.05,-0.89 0.05,-0.9 0.06,-0.89 0.07,-0.89 0.08,-0.89 0.08,-0.89 0.1,-0.89 0.1,-0.89 0.1,-0.89 0.09,-0.9 0.09,-0.89 0.08,-0.89 0.07,-0.89 0.05,-0.89 0.04,-0.89 0.03,-0.89 0.02,-0.89 0.03,-0.9 0.03,-0.89 0.04,-0.89 0.07,-0.89 0.09,-0.89 0.11,-0.89 0.15,-0.89 0.17,-0.9 0.2,-0.89 0.22,-0.89 0.23,-0.89 0.23,-0.89 0.25,-0.89 0.23,-0.89 0.23,-0.89 0.21,-0.9 0.19,-0.89 0.16,-0.89 0.13,-0.89 0.1,-0.89 0.06,-0.89 0.02,-0.89 -0.01,-0.89 -0.04,-0.9 -0.08,-0.89 -0.11,-0.89 -0.12,-0.89 -0.14,-0.89 -0.14,-0.89 -0.14,-0.89 -0.14,-0.89 -0.12,-0.9 -0.11,-0.89 -0.09,-0.89 -0.07,-0.89 -0.05,-0.89 -0.02,-0.89 -0.01,-0.89 0.03,-0.89 0.05,-0.9 0.08,-0.89 0.12,-0.89 0.15,-0.89 0.19,-0.89 0.24,-0.89 0.27,-0.89 0.32,-0.89 0.37,-0.9 0.41,-0.89 0.45,-0.89 0.49,-0.89 0.53,-0.89 0.57,-0.89 0.6,-0.89 0.65,-0.89 0.68,-0.9 0.73,-0.89 0.77,-0.89 0.82,-0.89 0.87,-0.89 0.9,-0.89 0.94,-0.89 0.95,-0.89 0.95,-0.9 0.94,-0.89 0.9,-0.89 0.83,-0.89 0.75,-0.89 0.65,-0.89 0.51,-0.89 0.4,-0.89 0.27,-0.9 0.16,-0.89 0.07,-0.89 -0.01,-0.89 -0.06,-0.89 -0.07,-0.89 -0.07,-0.89 -0.03,-0.89 0.03,-0.9 0.11,-0.89 0.22,-0.89 0.31,-0.89 0.42,-0.89 0.51,-0.89 0.61,-0.89 0.69,-0.89 0.77,-0.9 0.83,-0.89 0.87,-0.89 0.92,-0.89 0.95,-0.89 0.99,-0.89 1.01,-0.89 1.05,-0.9 1.08,-0.89 1.11,-0.89 1.16,-0.89 1.19,-0.89 1.21,-0.89 1.23,-0.89 1.22,-0.89 1.2,-0.9 1.15,-0.89 1.08,-0.89 1.01,-0.89 0.93,-0.89 0.85,-0.89 0.78,-0.89 0.72,-0.89 0.69,-0.9 0.68,-0.89 0.66,-0.89 0.66,-0.89 0.64,-0.89 0.61,-0.89 0.52,-0.89 0.4,-0.89 0.22,-0.9 -0.03,-0.89 -0.33,-0.89 -0.68,-0.89 -1.08,-0.89 -1.5,-0.89 -1.99,-0.89 -2.39,-0.89 -2.77,-0.9 -3.09,-0.89 -3.32,-0.89 -3.49,-0.89 -3.57,-0.89 -3.56,-0.89 -3.46,-0.89 -3.3,-0.89 -3.08,-0.9 -2.77,-0.89 -2.48,-0.89 z"
           style="fill:#4daf4a;fill-opacity:1;fill-rule:nonzero;stroke:#333333;stroke-width:1.07000005;stroke-linecap:round;stroke-linejoin:round;stroke-miterlimit:10;stroke-dasharray:none;stroke-opacity:1"
           id="path82"
           inkscape:connector-curvature="0" /><path
           d="M 71.66,54.26 H 831.72 V 585.48 H 71.66 Z"
           style="fill:none;stroke:#333333;stroke-width:1.94000006;stroke-linecap:round;stroke-linejoin:round;stroke-miterlimit:10;stroke-dasharray:none;stroke-opacity:1"
           id="path84"
           inkscape:connector-curvature="0" /></g></g><g
       id="g86" /><g
       id="g88" /><g
       id="g90" /><g
       id="g92" /><g
       id="g94" /><g
       id="g96" /><g
       id="g98" /><g
       id="g100" /><g
       id="g102" /><g
       id="g104" /><g
       id="g106" /><g
       id="g108" /><g
       id="g110" /><g
       id="g112" /><g
       id="g114" /><g
       id="g116"><text
         transform="matrix(1,0,0,-1,40.45,72.66)"
         style="font-variant:normal;font-weight:normal;font-size:16px;font-family:Helvetica;-inkscape-font-specification:Helvetica;writing-mode:lr-tb;fill:#4d4d4d;fill-opacity:1;fill-rule:nonzero;stroke:none"
         id="text120"><tspan
           x="0 8.8959999 13.344"
           y="0"
           sodipodi:role="line"
           id="tspan118">0.0</tspan></text>
<text
         transform="matrix(1,0,0,-1,40.45,193.39)"
         style="font-variant:normal;font-weight:normal;font-size:16px;font-family:Helvetica;-inkscape-font-specification:Helvetica;writing-mode:lr-tb;fill:#4d4d4d;fill-opacity:1;fill-rule:nonzero;stroke:none"
         id="text124"><tspan
           x="0 8.8959999 13.344"
           y="0"
           sodipodi:role="line"
           id="tspan122">2.5</tspan></text>
<text
         transform="matrix(1,0,0,-1,40.45,314.12)"
         style="font-variant:normal;font-weight:normal;font-size:16px;font-family:Helvetica;-inkscape-font-specification:Helvetica;writing-mode:lr-tb;fill:#4d4d4d;fill-opacity:1;fill-rule:nonzero;stroke:none"
         id="text128"><tspan
           x="0 8.8959999 13.344"
           y="0"
           sodipodi:role="line"
           id="tspan126">5.0</tspan></text>
<text
         transform="matrix(1,0,0,-1,40.45,434.86)"
         style="font-variant:normal;font-weight:normal;font-size:16px;font-family:Helvetica;-inkscape-font-specification:Helvetica;writing-mode:lr-tb;fill:#4d4d4d;fill-opacity:1;fill-rule:nonzero;stroke:none"
         id="text132"><tspan
           x="0 8.8959999 13.344"
           y="0"
           sodipodi:role="line"
           id="tspan130">7.5</tspan></text>
<text
         transform="matrix(1,0,0,-1,31.55,555.59)"
         style="font-variant:normal;font-weight:normal;font-size:16px;font-family:Helvetica;-inkscape-font-specification:Helvetica;writing-mode:lr-tb;fill:#4d4d4d;fill-opacity:1;fill-rule:nonzero;stroke:none"
         id="text136"><tspan
           x="0 8.8959999 17.792 22.24"
           y="0"
           sodipodi:role="line"
           id="tspan134">10.0</tspan></text>
</g><g
       id="g138" /><g
       id="g140"><path
         d="m 66.68,78.4 h 4.98"
         style="fill:none;stroke:#333333;stroke-width:1.94000006;stroke-linecap:butt;stroke-linejoin:round;stroke-miterlimit:10;stroke-dasharray:none;stroke-opacity:1"
         id="path142"
         inkscape:connector-curvature="0" /><path
         d="m 66.68,199.14 h 4.98"
         style="fill:none;stroke:#333333;stroke-width:1.94000006;stroke-linecap:butt;stroke-linejoin:round;stroke-miterlimit:10;stroke-dasharray:none;stroke-opacity:1"
         id="path144"
         inkscape:connector-curvature="0" /><path
         d="m 66.68,319.87 h 4.98"
         style="fill:none;stroke:#333333;stroke-width:1.94000006;stroke-linecap:butt;stroke-linejoin:round;stroke-miterlimit:10;stroke-dasharray:none;stroke-opacity:1"
         id="path146"
         inkscape:connector-curvature="0" /><path
         d="m 66.68,440.6 h 4.98"
         style="fill:none;stroke:#333333;stroke-width:1.94000006;stroke-linecap:butt;stroke-linejoin:round;stroke-miterlimit:10;stroke-dasharray:none;stroke-opacity:1"
         id="path148"
         inkscape:connector-curvature="0" /><path
         d="m 66.68,561.33 h 4.98"
         style="fill:none;stroke:#333333;stroke-width:1.94000006;stroke-linecap:butt;stroke-linejoin:round;stroke-miterlimit:10;stroke-dasharray:none;stroke-opacity:1"
         id="path150"
         inkscape:connector-curvature="0" /></g><g
       id="g152" /><g
       id="g154" /><g
       id="g156" /><g
       id="g158" /><g
       id="g160" /><g
       id="g162" /><g
       id="g164" /><g
       id="g166" /><g
       id="g168" /><g
       id="g170"><path
         d="m 214.17,49.28 v 4.98"
         style="fill:none;stroke:#333333;stroke-width:1.94000006;stroke-linecap:butt;stroke-linejoin:round;stroke-miterlimit:10;stroke-dasharray:none;stroke-opacity:1"
         id="path172"
         inkscape:connector-curvature="0" /><path
         d="m 451.69,49.28 v 4.98"
         style="fill:none;stroke:#333333;stroke-width:1.94000006;stroke-linecap:butt;stroke-linejoin:round;stroke-miterlimit:10;stroke-dasharray:none;stroke-opacity:1"
         id="path174"
         inkscape:connector-curvature="0" /><path
         d="m 689.21,49.28 v 4.98"
         style="fill:none;stroke:#333333;stroke-width:1.94000006;stroke-linecap:butt;stroke-linejoin:round;stroke-miterlimit:10;stroke-dasharray:none;stroke-opacity:1"
         id="path176"
         inkscape:connector-curvature="0" /></g><g
       id="g178" /><g
       id="g180"><text
         transform="matrix(1,0,0,-1,175.26,33.8)"
         style="font-variant:normal;font-weight:normal;font-size:16px;font-family:Helvetica;-inkscape-font-specification:Helvetica;writing-mode:lr-tb;fill:#4d4d4d;fill-opacity:1;fill-rule:nonzero;stroke:none"
         id="text184"><tspan
           x="0 10.672 23.120001 34.672001 44.015999 54.688 60.015999 68.912003"
           y="0"
           sodipodi:role="line"
           id="tspan182">BGC−Argo</tspan></text>
<text
         transform="matrix(1,0,0,-1,415.67,33.8)"
         style="font-variant:normal;font-weight:normal;font-size:16px;font-family:Helvetica;-inkscape-font-specification:Helvetica;writing-mode:lr-tb;fill:#4d4d4d;fill-opacity:1;fill-rule:nonzero;stroke:none"
         id="text188"><tspan
           x="0 10.672 15.12 27.568001 38.240002 50.688 61.360001"
           y="0"
           sodipodi:role="line"
           id="tspan186">BIOSOPE</tspan></text>
<text
         transform="matrix(1,0,0,-1,645.19,33.8)"
         style="font-variant:normal;font-weight:normal;font-size:16px;font-family:Helvetica;-inkscape-font-specification:Helvetica;writing-mode:lr-tb;fill:#4d4d4d;fill-opacity:1;fill-rule:nonzero;stroke:none"
         id="text192"><tspan
           x="0 10.672 23.120001 34.672001 45.344002 56.015999 68.463997 77.360001"
           y="0"
           sodipodi:role="line"
           id="tspan190">BOUSSOLE</tspan></text>
</g><g
       id="g194" /><g
       id="g196" /><g
       id="g198" /><g
       id="g200" /><g
       id="g202" /><g
       id="g204"><text
         transform="matrix(1,0,0,-1,380.53,12.21)"
         style="font-variant:normal;font-weight:normal;font-size:20px;font-family:Helvetica;-inkscape-font-specification:Helvetica;writing-mode:lr-tb;fill:#000000;fill-opacity:1;fill-rule:nonzero;stroke:none"
         id="text208"><tspan
           x="0 10 21.120001 32.240002 37.799999 48.919998 60.040001 65.599998 76.720001 87.839996 98.959999 110.08 121.2 132.32001"
           y="0"
           sodipodi:role="line"
           id="tspan206">Jeu de données</tspan></text>
</g><g
       id="g210" /><g
       id="g212"><text
         transform="matrix(0,1,1,0,24.32,177.75)"
         style="font-variant:normal;font-weight:normal;font-size:20px;font-family:Helvetica;-inkscape-font-specification:Helvetica;writing-mode:lr-tb;fill:#000000;fill-opacity:1;fill-rule:nonzero;stroke:none"
         id="text216"><tspan
           x="0 14.44 25.559999 36.68 47.799999 58.919998 66.379997 71.940002 77.5 83.059998 97.5 108.62 113.06 124.18 129.74001 135.3 139.74001 150.86 161.98 167.53999 173.10001 178.66 184.22 198.66 209.78 214.22 225.34 230.89999 245.34 258.67999 269.79999"
           y="0"
           sodipodi:role="line"
           id="tspan214">Rapport [Chla]<tspan
   style="font-size:65%;baseline-shift:sub"
   id="tspan242">fluo</tspan> / [Chla]<tspan
   style="font-size:65%;baseline-shift:sub"
   id="tspan244">HPLC</tspan></tspan></text>
</g><g
       id="g218" /><g
       id="g220" /><g
       id="g222" /><g
       id="g224" /><g
       id="g226" /><g
       id="g228" /><g
       id="g230" /><g
       id="g232" /><g
       id="g234" /><g
       id="g236" /><g
       id="g238" /><g
       id="g240" /></g></svg>